# xmcd CD database file
#
# Track frame offsets:
#	150
#	28897
#	51847
#	66244
#	92405
#	116192
#	131791
#	152834
#	174642
#	192230
#	221574
#	238902
#
# Disc length: 3502 seconds
#
# Revision: 0
# Processed by: cddbd v1.4PL0 Copyright (c) Steve Scherf et al.
# Submitted via: CDex 1.50beta10
#
DISCID=b40dac0c
DTITLE=the chicago klezmer ensemble - early recordings 1987-89
DYEAR=1989
DGENRE=Jazz
TTITLE0=Sha,Sha Di Shviger Kumt
TTITLE1=Yiddish Hora - A Heymish Freylekhs
TTITLE2=Oy, Di Kinderlakh
TTITLE3=A Galician Dance
TTITLE4=Doyna
TTITLE5=A Romanian Fantasy
TTITLE6=Mazltov Far Di Mekhutonim
TTITLE7=Behusher Khosid
TTITLE8=Hora and Honga
TTITLE9=Terkisher Tants and Khosidl
TTITLE10=Romanian Hora
TTITLE11=Mazel Tov, in memory of Dave Tarra
EXTD=YEAR: 1989
EXTT0=
EXTT1=
EXTT2=
EXTT3=
EXTT4=
EXTT5=
EXTT6=
EXTT7=
EXTT8=
EXTT9=
EXTT10=
EXTT11=
PLAYORDER=
